PathFileType	3	(X/Y/Z)	walking_1__view2_aligned.trc
DataRate	CameraRate	NumFrames	NumMarkers	Units	OrigDataRate	OrigDataStartFrame	OrigNumFrames
100.0	100.0	18	19	mm	100.0	3053	6105
Frame#	Time	pelvis			neck			head			hip_left			hip_right			knee_left			knee_right			ankle_left			ankle_right			heel_left			heel_right			toe_left			toe_right			shoulder_left			shoulder_right			elbow_left			elbow_right			wrist_left			wrist_right			
		X1	Y1	Z1	X2	Y2	Z2	X3	Y3	Z3	X4	Y4	Z4	X5	Y5	Z5	X6	Y6	Z6	X7	Y7	Z7	X8	Y8	Z8	X9	Y9	Z9	X10	Y10	Z10	X11	Y11	Z11	X12	Y12	Z12	X13	Y13	Z13	X14	Y14	Z14	X15	Y15	Z15	X16	Y16	Z16	X17	Y17	Z17	X18	Y18	Z18	X19	Y19	Z19	
3053	30.52000	7.847168	927.382273	217.823971	-1.971169	1490.003902	266.627946	11.829135	1611.056899	400.029892	84.560225	929.989526	210.379516	-68.865890	924.775020	225.268419	105.172544	506.999150	332.655766	-107.253291	500.950190	284.655093	98.931954	84.538172	343.267434	-124.303384	219.984471	-29.360148	92.191389	29.247641	317.609905	-123.816729	208.090910	-86.487569	100.831305	55.390615	541.453357	-124.507635	57.241291	60.470914	168.122606	1437.369056	195.486196	-181.450817	1421.898644	268.532283	259.803438	1152.869670	145.329762	-233.365279	1128.342714	298.029344	347.942418	894.258793	179.748872	-199.566416	917.587047	457.779880
3054	30.53000	8.616376	927.438422	217.893432	-1.263649	1490.239244	266.424003	11.498539	1611.241818	399.608374	85.444377	930.147312	210.607002	-68.211624	924.729533	225.179857	105.122771	506.253345	328.223724	-106.718378	502.522392	291.340764	97.835110	84.518659	334.418438	-123.882748	221.630138	-20.776976	90.904886	29.601475	308.293418	-123.235183	209.968262	-77.851200	100.236940	53.469950	531.824494	-124.585918	57.860534	68.282250	169.126346	1437.615617	197.126633	-180.374253	1422.584416	266.433461	261.061086	1153.323941	148.005631	-232.540605	1129.194153	293.501609	347.676998	894.471818	183.090097	-201.696947	916.439047	449.552235
3055	30.54000	9.385585	927.494572	217.962893	-0.556130	1490.474585	266.220059	11.167943	1611.426737	399.186856	86.328528	930.305098	210.834488	-67.557358	924.684046	225.091296	105.072998	505.507539	323.791682	-106.183465	504.094594	298.026434	96.738267	84.499147	325.569442	-123.462111	223.275805	-12.193804	89.618384	29.955309	298.976931	-122.653637	211.845615	-69.214832	99.642575	51.549284	522.195630	-124.664200	58.479778	76.093586	170.130086	1437.862178	198.767070	-179.297690	1423.270187	264.334638	262.318733	1153.778212	150.681501	-231.715931	1130.045593	288.973874	347.411578	894.684844	186.431322	-203.827478	915.291048	441.324590
3056	30.55000	10.154794	927.550721	218.032355	0.151390	1490.709926	266.016115	10.837347	1611.611656	398.765338	87.212680	930.462884	211.061974	-66.903092	924.638558	225.002734	105.023225	504.761733	319.359640	-105.648552	505.666796	304.712104	95.641423	84.479635	316.720445	-123.041475	224.921473	-3.610632	88.331882	30.309143	289.660445	-122.072090	213.722967	-60.578464	99.048211	49.628619	512.566767	-124.742482	59.099021	83.904922	171.133827	1438.108740	200.407506	-178.221127	1423.955959	262.235816	263.576381	1154.232482	153.357371	-230.891257	1130.897033	284.446140	347.146158	894.897869	189.772548	-205.958008	914.143048	433.096945
3057	30.56000	10.924003	927.606871	218.101816	0.858910	1490.945268	265.812172	10.506751	1611.796576	398.343820	88.096831	930.620670	211.289460	-66.248826	924.593071	224.914173	104.973452	504.015928	314.927598	-105.113639	507.238999	311.397775	94.544579	84.460122	307.871449	-122.620838	226.567140	4.972540	87.045379	30.662977	280.343958	-121.490544	215.600319	-51.942096	98.453846	47.707954	502.937903	-124.820764	59.718265	91.716258	172.137567	1438.355301	202.047943	-177.144564	1424.641731	260.136994	264.834029	1154.686753	156.033240	-230.066584	1131.748473	279.918405	346.880738	895.110894	193.113773	-208.088539	912.995048	424.869300
3058	30.57000	13.198789	928.178406	217.856769	2.682663	1491.691620	265.808163	10.805819	1612.488968	398.179521	90.458197	931.353827	211.326676	-64.060618	925.002992	224.386863	107.134451	503.948957	309.337556	-103.766875	509.157815	318.191824	96.505173	83.997913	296.721945	-121.878145	226.164481	18.810190	89.015823	30.415964	268.555206	-120.585945	214.609905	-37.485436	100.500928	45.397343	491.684307	-125.648160	61.263151	106.703964	174.513740	1439.129482	204.384069	-174.969301	1425.734431	258.038313	267.112509	1155.468754	160.376745	-227.940793	1132.924323	274.609914	345.673389	896.347289	200.692667	-208.637016	911.909723	415.182110
3059	30.58000	15.473575	928.749942	217.611722	4.506417	1492.437972	265.804154	11.104887	1613.181360	398.015223	92.819563	932.086983	211.363891	-61.872411	925.412913	223.859553	109.295449	503.881986	303.747515	-102.420110	511.076631	324.985872	98.465767	83.535705	285.572442	-121.135452	225.761822	32.647841	90.986267	30.168951	256.766454	-119.681345	213.619492	-23.028776	102.548010	43.086732	480.430712	-126.475556	62.808038	121.691670	176.889914	1439.903662	206.720195	-172.794037	1426.827132	255.939632	269.390988	1156.250756	164.720250	-225.815003	1134.100174	269.301424	344.466039	897.583684	208.271560	-209.185493	910.824397	405.494919
3060	30.59000	17.748362	929.321478	217.366674	6.330171	1493.184324	265.800146	11.403955	1613.873753	397.850924	95.180929	932.820140	211.401106	-59.684204	925.822834	223.332243	111.456448	503.815014	298.157474	-101.073346	512.995446	331.779921	100.426361	83.073496	274.422938	-120.392759	225.359163	46.485491	92.956710	29.921938	244.977702	-118.776746	212.629078	-8.572115	104.595092	40.776120	469.177116	-127.302952	64.352925	136.679375	179.266087	1440.677843	209.056321	-170.618774	1427.919833	253.840951	271.669468	1157.032757	169.063754	-223.689212	1135.276024	263.992933	343.258690	898.820078	215.850454	-209.733969	909.739071	395.807729
3061	30.60000	20.023148	929.893014	217.121627	8.153925	1493.930677	265.796137	11.703024	1614.566145	397.686626	97.542295	933.553296	211.438321	-57.495997	926.232755	222.804934	113.617447	503.748043	292.567432	-99.726582	514.914262	338.573970	102.386954	82.611287	263.273434	-119.650066	224.956504	60.323142	94.927154	29.674925	233.188950	-117.872147	211.638665	5.884545	106.642174	38.465509	457.923520	-128.130348	65.897812	151.667081	181.642261	1441.452024	211.392447	-168.443510	1429.012533	251.742270	273.947947	1157.814758	173.407259	-221.563422	1136.451875	258.684442	342.051340	900.056473	223.429348	-210.282446	908.653745	386.120539
3062	30.61000	22.297934	930.464549	216.876580	9.977679	1494.677029	265.792128	12.002092	1615.258537	397.522327	99.903661	934.286453	211.475537	-55.307790	926.642676	222.277624	115.778445	503.681072	286.977391	-98.379817	516.833078	345.368019	104.347548	82.149078	252.123930	-118.907373	224.553846	74.160792	96.897597	29.427911	221.400197	-116.967547	210.648251	20.341206	108.689256	36.154898	446.669924	-128.957744	67.442699	166.654787	184.018434	1442.226205	213.728573	-166.268247	1430.105234	249.643589	276.226427	1158.596760	177.750763	-219.437631	1137.627725	253.375952	340.843991	901.292868	231.008241	-210.830923	907.568420	376.433349
3063	30.62000	24.572721	931.036085	216.631532	11.801433	1495.423381	265.788120	12.301160	1615.950930	397.358029	102.265027	935.019610	211.512752	-53.119582	927.052597	221.750314	117.939444	503.614101	281.387350	-97.033053	518.751894	352.162067	106.308142	81.686869	240.974426	-118.164680	224.151187	87.998442	98.868041	29.180898	209.611445	-116.062948	209.657837	34.797866	110.736338	33.844287	435.416329	-129.785140	68.987586	181.642493	186.394608	1443.000386	216.064699	-164.092983	1431.197935	247.544907	278.504907	1159.378761	182.094268	-217.311841	1138.803576	248.067461	339.636642	902.529262	238.587135	-211.379400	906.483094	366.746159
3064	30.63000	26.847507	931.607621	216.386485	13.625186	1496.169733	265.784111	12.600228	1616.643322	397.193730	104.626393	935.752766	211.549967	-50.931375	927.462518	221.223004	120.100442	503.547130	275.797308	-95.686288	520.670710	358.956116	108.268736	81.224660	229.824923	-117.421987	223.748528	101.836093	100.838484	28.933885	197.822693	-115.158349	208.667424	49.254527	112.783420	31.533675	424.162733	-130.612536	70.532473	196.630198	188.770781	1443.774566	218.400825	-161.917720	1432.290635	245.446226	280.783386	1160.160762	186.437772	-215.186050	1139.979427	242.758971	338.429292	903.765657	246.166029	-211.927877	905.397768	357.058968
3065	30.64000	29.122293	932.179157	216.141438	15.448940	1496.916086	265.780103	12.899296	1617.335714	397.029432	106.987759	936.485923	211.587182	-48.743168	927.872439	220.695695	122.261441	503.480159	270.207267	-94.339524	522.589526	365.750165	110.229329	80.762452	218.675419	-116.679294	223.345869	115.673743	102.808928	28.686872	186.033941	-114.253750	207.677010	63.711187	114.830502	29.223064	412.909137	-131.439932	72.077360	211.617904	191.146955	1444.548747	220.736951	-159.742456	1433.383336	243.347545	283.061866	1160.942764	190.781277	-213.060260	1141.155277	237.450480	337.221943	905.002051	253.744922	-212.476354	904.312443	347.371778
3066	30.65000	31.397080	932.750692	215.896391	17.272694	1497.662438	265.776094	13.198365	1618.028107	396.865133	109.349125	937.219079	211.624398	-46.554961	928.282360	220.168385	124.422439	503.413188	264.617226	-92.992759	524.508342	372.544214	112.189923	80.300243	207.525915	-115.936601	222.943210	129.511394	104.779371	28.439859	174.245189	-113.349150	206.686597	78.167848	116.877584	26.912453	401.655542	-132.267328	73.622247	226.605610	193.523128	1445.322928	223.073077	-157.567193	1434.476036	241.248864	285.340345	1161.724765	195.124781	-210.934470	1142.331128	232.141990	336.014593	906.238446	261.323816	-213.024830	903.227117	337.684588
3067	30.66000	33.671866	933.322228	215.651343	19.096448	1498.408790	265.772085	13.497433	1618.720499	396.700835	111.710491	937.952236	211.661613	-44.366753	928.692281	219.641075	126.583438	503.346217	259.027184	-91.645995	526.427158	379.338262	114.150517	79.838034	196.376411	-115.193908	222.540552	143.349044	106.749815	28.192846	162.456437	-112.444551	205.696183	92.624508	118.924666	24.601842	390.401946	-133.094724	75.167134	241.593316	195.899302	1446.097109	225.409204	-155.391929	1435.568737	239.150183	287.618825	1162.506766	199.468286	-208.808679	1143.506978	226.833499	334.807244	907.474841	268.902710	-213.573307	902.141791	327.997398
3068	30.67000	33.671059	933.523484	214.756678	18.822554	1498.645123	265.579903	12.137680	1619.011891	396.349270	111.722864	938.172086	210.843736	-44.380742	928.874937	218.669620	126.829692	503.091239	252.350087	-90.939416	528.080260	383.961571	114.550273	80.518981	185.653630	-114.459955	220.115910	158.251855	107.201744	29.093041	151.270516	-111.728260	202.074391	108.429942	119.510161	23.955269	379.675536	-132.361038	76.410561	259.376787	195.969038	1446.302717	227.057344	-155.300145	1435.989791	237.204604	287.304657	1162.838302	203.005327	-208.777968	1144.351298	221.817454	331.200714	909.219120	276.655816	-216.328770	901.293885	318.245080
3069	30.68000	33.670251	933.724740	213.862013	18.548660	1498.881456	265.387720	10.777927	1619.303284	395.997705	111.735238	938.391936	210.025859	-44.394730	929.057592	217.698165	127.075947	502.836261	245.672990	-90.232838	529.733363	388.584880	114.950029	81.199928	174.930850	-113.726003	217.691269	173.154666	107.653672	29.993236	140.084596	-111.011968	198.452600	124.235376	120.095657	23.308696	368.949127	-131.627353	77.653989	277.160258	196.038774	1446.508326	228.705485	-155.208361	1436.410845	235.259026	286.990489	1163.169838	206.542367	-208.747257	1145.195617	216.801409	327.594184	910.963400	284.408921	-219.084232	900.445978	308.492762
3070	30.69000	33.669444	933.925996	212.967348	18.274765	1499.117789	265.195537	9.418174	1619.594676	395.646140	111.747611	938.611786	209.207981	-44.408719	929.240248	216.726711	127.322201	502.581283	238.995893	-89.526260	531.386465	393.208188	115.349785	81.880875	164.208069	-112.992050	215.266628	188.057476	108.105601	30.893430	128.898676	-110.295677	194.830808	140.040809	120.681152	22.662123	358.222717	-130.893667	78.897417	294.943729	196.108510	1446.713934	230.353626	-155.116577	1436.831899	233.313447	286.676321	1163.501374	210.079408	-208.716546	1146.039936	211.785364	323.987654	912.707680	292.162027	-221.839695	899.598071	298.740444
